<?xml version="1.0" standalone="no"?>
<!DOCTYPE svg PUBLIC "-//W3C//DTD SVG 20010904//EN"
 "http://www.w3.org/TR/2001/REC-SVG-20010904/DTD/svg10.dtd">
<svg version="1.0" xmlns="http://www.w3.org/2000/svg"
 width="1280.000000pt" height="964.000000pt" viewBox="0 0 1280.000000 964.000000"
 preserveAspectRatio="xMidYMid meet">
<metadata>
Created by potrace 1.15, written by Peter Selinger 2001-2017
</metadata>
<g transform="translate(0.000000,964.000000) scale(0.100000,-0.100000)"
fill="#000000" stroke="none">
<path d="M7030 9614 c-13 -34 -13 -126 1 -161 16 -42 68 -93 124 -119 58 -27
61 -25 70 57 13 111 -31 197 -117 233 -52 22 -67 20 -78 -10z"/>
<path d="M7465 9531 c-54 -14 -105 -43 -132 -75 -29 -35 -62 -102 -63 -128 0
-27 102 -61 185 -62 110 -1 192 52 260 168 15 25 24 49 21 54 -16 27 -214 58
-271 43z"/>
<path d="M6505 9511 c-28 -6 -30 -9 -28 -54 2 -61 37 -123 90 -161 35 -24 54
-30 119 -34 l77 -5 -7 39 c-19 106 -87 194 -161 213 -47 12 -46 12 -90 2z"/>
<path d="M6066 9423 c-89 -176 -68 -325 63 -445 32 -29 72 -61 89 -71 l31 -18
17 38 c103 240 77 408 -78 500 -88 52 -93 51 -122 -4z"/>
<path d="M7204 9235 c-7 -19 -14 -60 -14 -91 0 -88 42 -148 137 -197 l31 -17
11 33 c45 126 13 240 -80 287 -53 28 -68 25 -85 -15z"/>
<path d="M6860 9096 c-217 -85 -397 -202 -556 -360 -217 -218 -348 -470 -408
-784 l-21 -113 -65 88 c-162 218 -390 399 -625 494 -49 20 -89 42 -87 48 8 35
2 164 -9 202 -18 57 -73 112 -131 128 -70 20 -82 14 -92 -46 -17 -100 19 -197
90 -244 34 -22 22 -24 -57 -8 -73 14 -309 13 -406 -1 -81 -12 -182 -36 -191
-45 -3 -3 28 -5 69 -5 109 0 280 -17 398 -41 170 -33 428 -128 405 -148 -5 -4
-29 -23 -53 -41 -76 -59 -136 -178 -129 -257 l3 -38 33 63 c84 161 240 247
328 180 219 -166 363 -340 463 -563 l45 -100 18 -265 c9 -146 17 -270 17 -277
1 -8 -17 -9 -58 -6 -92 9 -94 7 -70 -79 25 -90 68 -160 123 -197 l41 -29 28
-198 c15 -110 61 -399 101 -644 40 -245 73 -446 71 -448 -1 -1 -37 55 -80 125
-123 201 -515 828 -583 933 -53 81 -59 96 -44 102 9 4 38 14 63 23 72 26 140
83 172 146 30 59 44 144 33 203 -7 35 -8 36 -54 36 -70 0 -179 -26 -226 -54
-40 -23 -110 -93 -131 -130 -8 -15 -30 12 -132 164 l-122 181 47 59 47 59 70
-6 c67 -5 113 5 197 41 13 6 18 -2 29 -49 24 -108 93 -185 183 -205 45 -10
112 -5 120 9 2 3 0 36 -5 73 -13 108 -59 176 -144 215 -22 10 -68 48 -103 84
-58 61 -109 93 -194 122 -14 5 -15 12 -6 49 11 50 5 207 -9 232 -8 14 -13 1
-22 -56 -16 -96 -52 -219 -65 -223 -6 -1 -29 -8 -52 -14 -51 -14 -164 -86
-164 -105 0 -8 15 -34 34 -59 l34 -44 -39 -22 c-37 -21 -39 -21 -45 -4 -4 10
-17 42 -30 72 l-24 53 -35 -26 -35 -27 -97 75 c-94 72 -269 173 -338 196 -30
10 -36 18 -55 78 -47 145 -111 244 -196 302 l-46 32 30 32 c51 53 66 94 66
171 0 57 -5 81 -28 127 -48 96 -54 98 -115 33 -88 -93 -123 -205 -92 -288 6
-16 11 -29 11 -30 0 -2 -18 -1 -40 1 -23 2 -67 1 -98 -3 l-57 -8 88 -18 c159
-32 270 -102 343 -215 29 -45 77 -164 70 -172 -2 -1 -32 5 -67 13 -35 9 -132
19 -215 22 l-151 6 -21 48 c-11 27 -25 49 -30 49 -17 0 -63 -61 -69 -91 -4
-24 -13 -31 -47 -39 -22 -5 -69 -18 -103 -29 -42 -13 -60 -15 -57 -7 5 13
-117 74 -186 94 -94 28 -221 22 -289 -13 -21 -11 -9 -13 95 -17 98 -4 128 -8
169 -28 l50 -23 -70 -8 c-122 -12 -215 -54 -321 -145 l-52 -44 -18 28 c-28 40
-25 205 5 286 11 33 19 61 18 63 -8 7 -58 -76 -77 -124 -10 -27 -22 -76 -25
-109 -8 -65 9 -204 26 -215 6 -4 -8 -35 -36 -78 -93 -144 -153 -308 -176 -478
-6 -48 -13 -90 -15 -92 -7 -7 -104 72 -134 109 -17 21 -43 65 -58 97 -25 54
-27 67 -27 191 l0 133 -18 -43 c-48 -113 -47 -233 2 -333 32 -65 118 -157 191
-205 l45 -30 17 -115 c20 -133 69 -287 128 -405 l42 -83 -43 -43 c-87 -88
-240 -126 -431 -105 -56 6 -103 9 -105 7 -11 -11 114 -59 188 -72 126 -22 275
3 459 79 10 5 28 -11 57 -49 l42 -56 -30 -56 c-20 -37 -23 -48 -10 -30 61 76
41 85 181 -84 150 -182 420 -497 737 -860 128 -146 233 -269 233 -272 0 -3
-153 71 -341 164 -609 305 -855 417 -1212 551 -231 86 -269 109 -384 233 -115
124 -203 265 -258 409 -39 105 -32 148 37 214 41 40 103 68 187 84 72 14 66
25 -21 35 -70 8 -148 -14 -216 -60 l-50 -35 -6 27 c-3 15 -9 83 -12 152 -7
149 11 311 55 481 17 63 33 125 36 139 10 38 -52 -62 -96 -155 -42 -89 -83
-223 -100 -324 -15 -87 -15 -289 0 -372 31 -186 115 -385 235 -559 35 -52 63
-96 61 -98 -1 -2 -52 2 -111 9 -399 43 -778 -88 -1079 -373 -86 -81 -205 -223
-205 -243 0 -5 15 5 33 22 146 138 421 290 627 347 l90 25 0 -38 c0 -95 -112
-247 -259 -349 -81 -57 -74 -66 25 -32 152 52 288 193 362 372 l27 67 62 7
c84 9 262 -10 393 -42 65 -15 206 -65 352 -123 l243 -99 3 -110 c3 -135 -14
-226 -63 -328 -41 -84 -63 -99 -130 -88 -46 7 -86 26 -133 61 -43 32 -50 24
-15 -17 27 -33 133 -90 166 -90 27 0 20 -15 -24 -55 -83 -75 -248 -163 -339
-182 -58 -11 -39 -20 33 -16 166 10 300 67 408 174 53 52 77 86 112 160 52
109 72 183 88 329 7 58 13 106 14 108 4 5 1063 -453 1077 -467 4 -3 -39 -4
-95 -3 -231 8 -600 -74 -812 -181 -149 -74 -242 -148 -324 -257 -31 -41 -65
-94 -75 -117 -10 -24 -22 -43 -27 -43 -4 0 -47 10 -96 21 -57 14 -128 22 -203
24 -110 2 -118 4 -165 34 -106 67 -244 96 -335 71 l-45 -13 92 -13 c101 -14
179 -43 213 -79 l21 -23 -73 -35 c-94 -46 -191 -134 -244 -223 -42 -71 -78
-153 -71 -161 3 -2 21 18 41 46 96 131 263 249 402 285 87 23 232 21 330 -4
43 -11 82 -24 86 -28 8 -8 -74 -278 -135 -442 -36 -97 -94 -237 -162 -392
l-38 -86 -68 -16 c-128 -29 -224 -88 -291 -180 -42 -59 -34 -62 28 -11 31 25
76 57 99 70 51 30 151 53 166 38 8 -8 -14 -60 -70 -169 -71 -140 -109 -209
-235 -429 -34 -59 -22 -48 66 60 176 216 350 469 466 676 65 116 149 292 166
347 11 34 24 27 36 -20 6 -24 13 -51 16 -60 11 -38 5 -227 -10 -302 -9 -44
-14 -81 -12 -84 10 -9 75 148 87 206 18 94 7 268 -24 371 l-25 84 25 86 c52
180 183 382 325 500 81 68 259 162 350 185 l57 14 24 -32 c119 -158 206 -390
228 -612 10 -97 10 -114 -5 -142 -40 -77 -151 -120 -279 -107 -79 7 -81 -1
-10 -36 60 -28 176 -31 237 -6 21 10 42 17 46 17 17 0 -29 -198 -77 -325 -44
-119 -141 -301 -221 -415 l-17 -25 31 23 c53 37 171 170 229 257 144 216 215
467 202 715 -4 63 -9 134 -13 158 l-7 42 61 0 c116 0 236 -61 380 -195 60 -56
71 -63 62 -39 -63 166 -252 307 -488 364 l-51 12 -20 87 c-11 48 -24 133 -27
189 l-7 102 85 0 c317 0 791 -187 1253 -495 279 -186 515 -304 990 -496 415
-167 550 -227 695 -310 122 -69 113 -53 130 -214 28 -253 79 -570 131 -814
l31 -144 -55 -131 c-141 -338 -172 -498 -172 -881 1 -251 5 -310 42 -567 l17
-118 622 0 622 0 -85 83 c-203 196 -365 464 -424 699 -30 119 -37 363 -15 521
37 260 108 581 178 797 95 296 201 528 366 805 191 320 304 559 411 867 73
213 138 361 238 543 185 339 385 595 556 710 28 19 54 32 58 29 20 -12 105
-154 150 -249 43 -91 48 -109 37 -123 -7 -9 -30 -37 -50 -62 -57 -69 -125
-196 -155 -285 -22 -67 -26 -98 -26 -190 0 -68 5 -121 13 -140 12 -29 13 -28
25 50 28 186 82 320 162 406 41 44 100 87 107 77 2 -2 18 -30 36 -63 133 -239
336 -438 566 -553 151 -75 335 -129 474 -137 l85 -6 -40 17 c-22 9 -69 28
-105 42 -190 73 -425 216 -560 340 l-75 70 45 12 c121 33 207 110 249 223 10
26 5 24 -46 -23 -112 -100 -232 -138 -321 -101 -79 33 -219 308 -271 533 -17
74 -46 316 -39 324 10 10 112 48 177 65 109 30 338 38 452 14 184 -37 349
-109 478 -208 81 -62 85 -68 111 -138 79 -218 206 -376 364 -454 38 -20 71
-34 73 -31 2 2 -31 37 -73 77 -100 97 -157 171 -200 263 -51 107 -45 115 46
60 166 -101 471 -238 715 -321 170 -57 604 -178 612 -169 1 1 -59 28 -135 60
-75 32 -238 107 -361 167 l-224 109 19 21 c50 56 175 84 304 70 41 -5 77 -7
79 -5 10 9 -96 47 -150 54 -93 13 -229 -13 -328 -64 -32 -17 -32 -17 -119 30
-139 76 -296 170 -447 270 -161 106 -375 262 -375 274 0 19 117 154 173 200
136 110 269 154 462 153 123 -1 220 -18 330 -58 37 -13 -26 32 -95 69 -143 75
-313 103 -443 72 -86 -20 -87 -20 -87 5 0 48 54 135 132 212 43 42 74 77 68
77 -19 0 -94 -42 -137 -78 -54 -44 -113 -132 -148 -220 -25 -64 -32 -72 -90
-111 -35 -23 -110 -91 -167 -151 l-104 -110 -80 34 c-268 113 -541 99 -902
-45 -224 -89 -431 -206 -561 -317 l-44 -37 25 45 c15 25 114 198 221 385 302
528 412 715 418 712 3 -1 34 -36 70 -77 75 -87 205 -194 287 -238 180 -96 380
-106 569 -30 59 24 207 117 199 125 -2 3 -14 -1 -26 -7 -84 -45 -313 -86 -421
-75 -89 9 -95 14 -63 56 36 48 60 106 69 167 8 63 -6 69 -22 10 -20 -72 -73
-150 -120 -176 l-43 -23 -64 30 c-126 61 -234 158 -324 293 l-45 68 113 187
c63 104 136 222 164 263 109 165 242 303 399 417 l80 57 36 -22 c227 -141 466
-177 647 -97 30 13 54 25 54 27 0 2 -60 3 -133 4 -150 1 -238 18 -328 66 -52
27 -128 93 -118 102 2 2 45 19 94 38 194 76 385 108 647 109 l183 1 -75 24
c-233 75 -549 86 -800 30 -253 -57 -469 -173 -681 -367 l-86 -78 -6 147 c-11
293 -88 543 -235 767 -65 100 -258 291 -362 358 -92 59 -180 106 -263 138 -61
24 -62 25 68 -79 184 -147 341 -321 444 -492 l51 -85 -80 -6 c-99 -8 -192 -50
-245 -111 -19 -23 -33 -43 -31 -45 1 -2 32 10 67 27 128 59 229 63 311 11 40
-26 46 -35 66 -102 36 -120 52 -224 55 -347 l2 -116 -186 -42 c-201 -45 -580
-117 -586 -111 -13 14 21 43 100 84 133 70 263 205 292 303 6 21 -2 16 -46
-26 -44 -42 -63 -53 -100 -58 -68 -10 -157 -56 -223 -117 l-59 -54 -66 1 c-88
1 -107 12 -115 69 -26 170 -94 369 -176 512 l-49 84 16 42 c39 107 54 213 43
303 -16 129 -103 255 -222 319 l-53 29 61 -67 c119 -130 168 -268 146 -410 -6
-40 -18 -89 -26 -109 l-15 -36 -88 90 c-128 131 -321 253 -493 311 -25 9 -44
21 -42 27 5 23 -75 157 -130 216 -60 63 -147 117 -208 128 l-35 6 25 -17 c152
-109 218 -186 227 -265 l5 -44 -123 0 c-92 0 -140 -4 -184 -18 -152 -46 -278
-144 -375 -292 -28 -42 -50 -80 -50 -85 0 -5 21 12 48 38 100 97 228 166 371
200 97 22 280 13 388 -20 159 -48 325 -166 447 -319 l66 -83 -90 -18 c-49 -9
-115 -27 -146 -38 -82 -31 -199 -113 -247 -174 -23 -30 -45 -54 -49 -54 -4 -1
-9 8 -13 18 -4 15 7 31 45 67 31 29 63 74 85 117 31 61 35 79 35 145 0 85 -16
152 -37 152 -33 0 -162 -70 -212 -115 -102 -93 -141 -187 -141 -344 0 -55 4
-102 10 -106 5 -3 37 8 70 25 33 17 65 28 69 26 5 -3 14 -26 20 -50 9 -38 8
-52 -8 -93 -29 -73 -53 -194 -60 -301 l-6 -96 -40 -8 c-22 -4 -65 -15 -96 -24
l-56 -16 -79 57 c-43 31 -105 72 -137 92 l-58 35 38 28 c91 67 172 175 222
294 39 94 40 125 2 65 -73 -116 -197 -236 -313 -303 l-48 -28 0 49 c0 26 -5
68 -11 93 -11 47 -57 135 -66 126 -3 -2 3 -29 13 -58 17 -51 25 -171 12 -184
-4 -3 -39 5 -78 17 l-72 24 -28 60 c-31 68 -69 107 -119 124 l-35 11 46 -44
c41 -39 81 -117 67 -130 -2 -2 -29 0 -59 6 -55 10 -276 5 -316 -7 -19 -6 -22
-2 -28 51 -3 31 -5 58 -3 60 1 2 21 -1 44 -6 29 -7 56 -5 99 6 32 8 60 17 62
19 9 9 -49 93 -87 128 -34 31 -92 57 -127 57 -7 0 -14 33 -17 83 -19 243 9
469 85 678 l20 57 66 7 c252 25 435 123 544 289 21 33 36 61 33 64 -2 2 -26
-13 -52 -35 -72 -60 -164 -117 -240 -148 -52 -22 -89 -29 -158 -32 -49 -2 -96
0 -104 5 -11 8 -1 30 51 108 123 188 304 366 511 505 49 32 82 59 75 59 -7 -1
-51 -16 -98 -34z m1284 -1498 c86 -177 126 -353 126 -559 l0 -106 -67 -7 c-38
-3 -169 -8 -293 -11 -124 -3 -264 -7 -312 -9 l-88 -3 0 87 0 87 123 6 c67 3
146 13 176 21 167 46 275 151 311 303 6 29 9 56 6 61 -3 5 -36 12 -74 16 -195
19 -386 -72 -478 -230 -14 -24 -28 -44 -30 -44 -7 0 37 103 59 140 87 144 214
252 387 326 41 18 81 33 87 33 7 1 37 -50 67 -111z m-4867 -128 c-108 -82
-191 -206 -218 -328 -11 -48 -15 -53 -51 -64 -49 -14 -49 -35 -3 -112 27 -46
35 -69 35 -107 0 -27 5 -49 10 -49 6 0 10 16 10 35 0 40 10 43 48 16 50 -34
121 -51 218 -51 77 0 190 14 202 25 9 8 -43 89 -88 138 -62 68 -152 116 -233
124 -31 3 -57 9 -57 13 0 16 80 127 118 163 l39 38 13 -44 c21 -77 108 -139
216 -154 l47 -6 -5 60 c-3 33 -15 78 -27 101 -23 45 -92 102 -123 102 -79 0
110 92 255 125 l29 6 -20 -28 c-26 -39 -33 -73 -22 -114 17 -58 23 -63 57 -46
50 26 64 71 49 155 -6 34 -5 42 7 42 8 0 22 -11 30 -24 21 -31 76 -56 124 -56
21 0 63 12 93 26 l54 25 83 -26 83 -26 0 -49 c0 -90 9 -95 92 -51 l55 28 42
-25 42 -25 -61 -33 c-68 -36 -149 -96 -194 -143 -36 -38 -40 -38 -54 -6 -15
32 -15 85 -2 121 14 36 5 42 -16 9 -26 -40 -32 -96 -17 -155 l13 -52 -50 -75
c-118 -177 -220 -463 -255 -715 l-6 -47 -57 -6 c-88 -9 -250 -42 -323 -65
l-67 -21 -44 31 c-48 34 -105 46 -162 36 -51 -10 -45 -26 9 -26 49 0 119 -30
128 -54 4 -11 -10 -24 -51 -46 -31 -16 -81 -48 -111 -71 -29 -22 -57 -37 -61
-32 -4 4 -29 38 -57 74 -102 135 -174 275 -220 424 -25 83 -27 103 -27 270 -1
196 8 249 65 386 70 171 224 323 392 385 92 34 97 29 24 -26z m5698 -189 c-9
-15 -146 -104 -151 -98 -5 4 141 107 152 107 3 0 3 -4 -1 -9z m-4398 -50 c88
-73 159 -153 184 -206 12 -26 30 -50 40 -53 21 -8 105 -124 235 -327 250 -388
491 -831 894 -1650 206 -417 287 -564 367 -659 13 -16 22 -31 19 -33 -9 -10
-182 89 -266 151 -156 117 -356 328 -517 546 -82 112 -216 311 -211 314 2 1
18 8 36 15 17 8 32 17 32 21 0 4 -11 24 -25 44 -22 33 -24 42 -15 75 35 129
41 295 16 404 -16 67 -59 164 -91 202 -16 19 -16 19 -10 -15 4 -19 13 -69 20
-110 18 -92 19 -231 3 -302 l-11 -53 -12 45 c-7 25 -22 65 -34 89 l-23 43 -38
-37 c-21 -21 -44 -51 -51 -66 -6 -16 -14 -29 -18 -29 -3 0 -22 24 -41 53 -19
28 -54 75 -78 104 -35 44 -41 57 -32 73 17 32 12 39 -47 56 -37 11 -76 33
-114 64 -107 89 -215 144 -331 170 -41 9 -58 18 -58 29 0 13 -2 13 -9 2 -7
-11 -22 -12 -87 -2 -44 7 -136 15 -206 18 -71 3 -128 8 -128 11 0 2 14 30 31
63 56 104 169 225 298 317 40 29 41 32 19 32 -72 0 -210 -66 -290 -138 -21
-19 -38 -29 -38 -23 0 25 75 232 116 320 85 181 225 364 349 454 28 20 53 37
57 37 4 0 33 -22 65 -49z m1818 -116 c69 -12 110 -23 240 -63 18 -5 18 -6 -5
-13 -38 -11 -137 -10 -210 1 -76 12 -209 54 -236 75 -17 13 -11 14 56 15 41 0
111 -7 155 -15z m3083 -62 c-5 -42 -18 -116 -29 -164 -18 -78 -30 -103 -108
-221 -257 -393 -384 -619 -751 -1343 -106 -209 -197 -384 -202 -390 -6 -6 -7
11 -4 45 3 30 15 174 26 320 29 380 19 339 96 384 36 21 63 40 61 42 -1 2 -31
-5 -66 -16 l-62 -19 5 52 c5 47 18 222 46 646 10 153 15 170 48 171 7 0 10 5
7 10 -3 6 -15 10 -26 10 -18 0 -19 5 -13 113 4 61 9 115 13 119 3 3 76 24 161
46 190 49 444 134 633 212 78 32 149 58 158 59 13 1 14 -9 7 -76z m-882 -72
c-7 -11 -76 -20 -76 -10 0 4 10 10 23 12 40 8 58 7 53 -2z m-2291 -29 c102
-23 358 -23 444 1 l64 17 46 -26 c75 -43 221 -139 221 -145 0 -15 -91 -49
-157 -60 -41 -6 -98 -24 -135 -42 l-63 -32 78 -3 78 -3 -68 -74 -67 -74 -26
29 c-14 16 -37 32 -52 36 -27 6 -28 5 -28 -36 0 -43 13 -78 37 -95 11 -9 7
-21 -25 -65 -51 -72 -156 -255 -194 -338 -17 -36 -41 -81 -55 -99 -14 -17 -22
-37 -18 -43 4 -6 -3 -38 -14 -73 -11 -34 -23 -79 -27 -100 -3 -20 -9 -39 -13
-42 -6 -3 -51 347 -51 393 0 7 14 12 35 12 47 0 97 26 123 64 27 40 28 62 3
76 -31 16 -123 12 -149 -6 -13 -9 -25 -14 -27 -13 -1 2 -19 159 -39 349 -20
190 -39 362 -42 384 -6 39 -6 39 22 31 16 -4 61 -14 99 -23z m1961 -204 c-3
-13 -6 -44 -6 -70 0 -32 -4 -48 -12 -48 -21 0 -140 59 -178 88 l-35 27 95 11
c148 17 143 17 136 -8z m-460 -8 c22 0 22 -1 -12 -57 -88 -146 -85 -312 7
-473 l32 -55 46 52 c97 108 160 249 161 357 0 51 2 57 18 51 17 -7 155 -54
180 -61 7 -2 12 -20 12 -46 -1 -90 -47 -505 -85 -755 -8 -57 -15 -107 -15
-112 0 -10 -167 -27 -176 -18 -4 3 5 21 19 39 65 86 117 231 117 324 l0 48
-59 -119 c-60 -122 -128 -216 -191 -266 -32 -26 -40 -28 -92 -22 l-58 6 0 35
c0 19 12 59 26 89 32 65 42 167 23 233 l-13 45 -10 -57 c-15 -80 -26 -82 -26
-6 0 126 -51 332 -110 447 -40 78 -57 101 -139 191 l-72 79 58 17 c91 27 213
44 277 39 32 -3 69 -5 82 -5z m-469 -206 c66 -44 123 -118 152 -196 24 -67 64
-255 56 -267 -2 -5 -37 -17 -76 -26 -165 -41 -308 4 -441 138 l-71 72 28 -55
c84 -168 227 -251 405 -236 41 3 96 13 121 20 l46 14 7 -75 c3 -42 6 -109 6
-150 0 -71 -1 -74 -27 -84 -68 -27 -305 80 -487 218 -75 58 -211 194 -250 251
l-29 42 34 56 c65 108 227 265 340 329 l42 23 44 -19 c25 -10 69 -35 100 -55z
m-3507 -476 c0 -24 5 -62 10 -86 10 -40 8 -47 -22 -93 l-32 -50 -26 48 c-38
74 -69 110 -128 151 l-54 37 38 8 c33 7 78 13 202 26 8 1 12 -14 12 -41z m230
38 c0 -4 -99 -66 -106 -66 -2 0 -4 16 -4 35 l0 35 55 0 c30 0 55 -2 55 -4z
m300 -81 c-40 -105 -100 -173 -192 -219 -39 -20 -79 -36 -90 -36 -14 0 -29 22
-58 82 l-40 82 22 13 c94 52 250 100 330 102 36 1 37 0 28 -24z m166 -15 c32
-16 73 -41 89 -55 29 -24 29 -25 11 -37 -70 -41 -166 -174 -166 -228 0 -15 47
-42 115 -65 18 -7 16 -9 -15 -22 -84 -36 -201 -38 -330 -7 -23 5 -23 4 6 -15
54 -37 142 -61 220 -61 114 0 171 26 334 153 73 57 63 61 163 -68 45 -59 64
-91 55 -93 -7 -3 -32 -13 -56 -23 -40 -17 -42 -20 -30 -39 24 -39 73 -62 128
-59 48 3 52 1 70 -29 37 -61 23 -216 -27 -302 l-27 -45 -39 80 -38 80 5 -47 6
-48 -72 75 c-39 42 -103 99 -142 129 -78 58 -214 141 -221 134 -2 -2 41 -49
97 -103 247 -245 393 -503 447 -788 8 -46 8 -47 -18 -47 -20 0 -33 11 -56 48
-89 141 -369 490 -590 732 -67 74 -143 160 -167 190 -55 68 -182 250 -177 254
2 2 39 19 81 40 122 58 208 158 225 263 5 28 10 33 33 33 15 0 53 -13 86 -30z
m-1141 -27 c25 -136 151 -242 345 -292 l75 -19 3 22 c2 12 -2 42 -7 67 -9 40
-8 46 12 62 54 43 52 44 102 -60 59 -125 88 -169 208 -322 113 -143 113 -142
-13 -149 -50 -3 -96 1 -140 13 -71 18 -212 81 -261 116 -55 39 -43 10 24 -55
116 -114 251 -164 469 -175 l128 -6 115 -145 c289 -360 456 -681 500 -957 4
-24 5 -43 2 -43 -2 0 -24 26 -48 58 -84 112 -128 157 -464 475 -399 377 -811
787 -982 977 -138 154 -303 350 -303 361 0 8 199 106 221 108 4 1 10 -16 14
-36z m3416 -113 c41 -16 75 -30 77 -30 1 0 2 -4 2 -10 0 -5 -6 -10 -13 -10
-41 0 -207 -157 -207 -196 0 -16 129 -72 208 -90 37 -9 88 -14 114 -11 l48 4
5 -36 c23 -142 65 -253 132 -343 l36 -49 -12 -68 c-6 -38 -14 -114 -17 -170
-4 -63 -11 -101 -18 -101 -6 0 -34 11 -62 24 -59 28 -120 79 -176 149 -26 33
-38 43 -38 30 1 -72 114 -200 227 -257 71 -35 72 -36 78 -83 28 -202 126 -435
260 -621 78 -109 224 -271 317 -353 46 -41 82 -76 81 -80 -1 -3 -62 -98 -136
-210 -73 -112 -185 -287 -247 -389 -63 -102 -115 -186 -116 -188 -1 -2 -29 16
-62 40 -34 24 -121 80 -195 124 l-135 79 -7 75 c-28 327 -36 416 -46 490 -41
330 -79 514 -170 804 -27 87 -58 198 -69 248 -22 97 -65 357 -74 452 l-6 58
34 -30 c37 -32 106 -50 145 -37 16 5 21 15 21 38 0 97 -67 185 -158 207 l-52
12 0 86 c0 105 14 242 36 340 14 66 18 74 47 86 18 8 41 21 52 30 11 8 21 16
21 16 1 0 35 -13 75 -30z m541 -279 c58 -22 130 -46 160 -52 29 -6 54 -12 55
-13 1 -1 -4 -60 -12 -132 -31 -284 -40 -471 -40 -837 0 -207 -1 -377 -2 -377
-1 0 -18 29 -38 64 -113 202 -175 463 -175 736 0 129 19 315 44 423 7 31 12
57 10 57 -8 0 -64 -121 -89 -195 -16 -44 -31 -84 -35 -88 -11 -13 -66 147 -80
232 -17 102 -8 157 33 199 17 18 39 31 47 28 8 -2 63 -22 122 -45z m788 -62
c0 -28 -158 -945 -197 -1139 -8 -41 -17 -153 -20 -249 -6 -197 -7 -197 -68
-66 -66 141 -119 357 -146 595 -13 113 -14 653 -1 707 5 22 24 43 67 76 57 41
66 44 145 51 47 4 112 13 145 20 33 7 63 14 68 15 4 0 7 -4 7 -10z m-2900
-354 c27 -47 50 -87 50 -90 0 -2 -13 -17 -29 -33 -16 -16 -34 -46 -40 -68 -15
-54 -14 -114 2 -114 33 0 91 24 121 50 l33 29 115 -172 c132 -196 219 -314
326 -440 41 -48 72 -90 69 -93 -8 -8 -185 84 -262 136 -184 125 -342 294 -471
503 l-42 69 23 46 c37 74 58 159 53 213 -3 27 -4 49 -2 49 2 0 26 -38 54 -85z
m30 -655 c0 -5 -2 -10 -4 -10 -3 0 -8 5 -11 10 -3 6 -1 10 4 10 6 0 11 -4 11
-10z m138 -150 c242 -224 574 -356 1005 -403 105 -11 107 -12 107 -37 0 -33
28 -500 36 -613 l7 -88 -79 37 c-345 159 -772 332 -1214 491 -25 9 -48 19 -52
22 -4 3 0 33 7 66 27 112 45 289 45 435 0 81 3 150 7 153 21 21 59 3 131 -63z
m-268 40 c0 -5 -4 -10 -10 -10 -5 0 -10 5 -10 10 0 6 5 10 10 10 6 0 10 -4 10
-10z"/>
<path d="M3161 6630 c-72 -15 -162 -63 -221 -117 l-55 -51 30 -31 c40 -43 134
-88 199 -96 70 -9 154 9 241 51 65 31 187 115 193 132 4 12 -104 74 -163 94
-65 22 -166 30 -224 18z"/>
<path d="M4401 6783 c-22 -42 -17 -85 13 -120 24 -27 26 -27 42 -11 25 24 23
78 -5 116 -25 36 -36 39 -50 15z"/>
<path d="M4544 6706 c-41 -18 -78 -65 -64 -81 19 -22 69 -37 103 -31 37 7 107
60 107 81 0 33 -97 53 -146 31z"/>
<path d="M4426 6591 c-22 -41 -20 -73 5 -105 24 -30 37 -33 55 -8 25 32 10 98
-30 131 -12 10 -17 7 -30 -18z"/>
<path d="M4852 6533 c-35 -17 -72 -57 -72 -79 0 -18 52 -44 90 -44 40 0 77 20
118 63 36 38 33 45 -27 66 -45 15 -70 14 -109 -6z"/>
<path d="M4814 6272 c-45 -21 -85 -67 -109 -125 -19 -47 -20 -44 15 -62 37
-19 112 -19 148 -1 60 32 158 175 131 192 -7 4 -41 9 -78 11 -51 3 -76 -1
-107 -15z"/>
<path d="M8726 6748 c-116 -131 -156 -263 -125 -410 11 -52 51 -144 81 -187
15 -21 15 -21 50 17 51 56 95 124 130 199 40 85 49 193 23 276 -16 52 -78 147
-101 154 -7 2 -33 -20 -58 -49z"/>
<path d="M6546 6754 c-20 -53 7 -126 53 -142 37 -13 41 -9 41 46 0 37 -6 50
-34 78 -38 38 -51 42 -60 18z"/>
<path d="M6475 6591 c-43 -19 -106 -103 -90 -119 4 -4 40 -7 80 -7 63 0 77 3
98 23 34 32 53 80 39 94 -14 14 -101 20 -127 9z"/>
<path d="M6910 5234 c-68 -29 -110 -94 -96 -150 8 -31 37 -31 96 -1 50 25 76
62 86 125 6 41 6 42 -22 42 -16 -1 -45 -8 -64 -16z"/>
<path d="M6720 5018 c-52 -27 -90 -78 -90 -122 0 -48 12 -60 53 -52 71 13 117
72 117 151 0 54 -12 57 -80 23z"/>
<path d="M6875 4644 c-54 -28 -58 -36 -32 -72 64 -86 142 -106 249 -64 41 17
41 28 2 72 -68 75 -152 99 -219 64z"/>
<path d="M5506 9068 c-75 -263 -17 -485 170 -657 35 -32 96 -75 134 -95 l69
-37 5 23 c25 115 30 159 30 268 0 224 -59 359 -202 467 -47 35 -153 83 -183
83 -4 0 -14 -24 -23 -52z"/>
<path d="M8100 9060 c0 -41 37 -177 64 -235 60 -130 155 -197 281 -199 39 0
83 3 99 7 l29 8 -6 72 c-13 176 -112 301 -269 343 -63 16 -198 19 -198 4z"/>
<path d="M6860 8952 c0 -53 31 -133 66 -171 38 -43 105 -67 155 -56 34 8 37
33 14 111 -24 83 -110 144 -201 144 -31 0 -34 -3 -34 -28z"/>
<path d="M8870 8954 c-107 -29 -180 -78 -218 -148 -19 -35 -24 -168 -6 -186
13 -13 115 5 164 30 89 46 139 136 140 248 0 81 3 78 -80 56z"/>
<path d="M4141 8861 c-104 -103 -134 -199 -91 -298 12 -28 32 -61 44 -72 l23
-21 49 36 c89 66 130 145 122 238 -5 58 -54 176 -73 176 -8 0 -40 -27 -74 -59z"/>
<path d="M7243 8889 c-66 -19 -117 -101 -98 -158 6 -19 12 -21 43 -15 80 14
124 59 137 142 7 41 6 42 -22 41 -15 0 -42 -5 -60 -10z"/>
<path d="M4416 8874 c-3 -9 -6 -43 -6 -76 0 -73 26 -126 79 -161 29 -19 93
-47 107 -47 1 0 6 25 9 55 14 105 -25 192 -99 226 -50 23 -82 24 -90 3z"/>
<path d="M9081 8809 c-43 -59 -56 -113 -42 -168 13 -47 42 -96 74 -122 20 -16
22 -16 38 5 30 38 57 101 64 146 7 55 -22 120 -72 158 l-32 24 -30 -43z"/>
<path d="M3548 8690 c-55 -19 -128 -57 -128 -67 0 -2 20 -31 45 -63 159 -207
349 -258 520 -140 25 17 45 37 45 44 0 21 -56 101 -101 145 -73 70 -129 94
-234 98 -71 3 -102 -1 -147 -17z"/>
<path d="M7055 8673 c-73 -38 -106 -97 -91 -158 8 -32 37 -33 91 -2 48 27 75
76 75 135 0 37 -3 42 -22 42 -13 -1 -36 -8 -53 -17z"/>
<path d="M8528 8552 c-101 -40 -151 -80 -183 -146 -24 -49 -27 -65 -22 -115 2
-32 10 -67 16 -79 9 -18 15 -19 53 -11 145 33 228 132 228 276 0 70 -6 103
-19 103 -3 -1 -36 -13 -73 -28z"/>
<path d="M9456 8535 c-92 -120 -85 -254 18 -354 l34 -33 31 42 c99 137 89 291
-25 361 l-31 19 -27 -35z"/>
<path d="M9876 8208 c-145 -146 -197 -259 -197 -433 0 -103 21 -194 67 -293
l35 -77 89 92 c112 114 182 221 215 325 39 123 32 258 -20 358 -25 49 -77 120
-87 120 -5 0 -51 -42 -102 -92z"/>
<path d="M2968 8227 c-81 -68 -100 -159 -51 -248 14 -27 30 -49 35 -49 4 0 26
16 48 36 51 47 67 95 51 160 -10 40 -47 124 -54 124 -1 0 -14 -10 -29 -23z"/>
<path d="M10574 8214 c-32 -19 -78 -54 -101 -76 -98 -96 -119 -256 -53 -404
l19 -44 40 23 c168 96 265 239 246 365 -10 72 -60 172 -85 172 -3 0 -33 -16
-66 -36z"/>
<path d="M3388 8098 c-17 -12 -17 -15 -2 -43 22 -44 64 -85 101 -101 41 -18
133 -19 133 -2 0 22 -62 104 -96 127 -41 28 -112 38 -136 19z"/>
<path d="M10943 8004 c-49 -108 -20 -210 83 -283 l44 -33 22 49 c31 70 36 169
10 219 -24 48 -46 69 -95 89 l-38 16 -26 -57z"/>
<path d="M6470 8023 c0 -42 25 -100 55 -130 28 -28 40 -33 79 -33 44 0 46 1
46 28 0 15 -9 46 -20 70 -15 33 -29 47 -62 62 -55 25 -98 26 -98 3z"/>
<path d="M7082 7956 c-59 -64 -75 -101 -75 -171 0 -62 22 -124 63 -175 l20
-25 46 49 c25 27 54 67 65 88 27 53 35 129 19 170 -18 43 -68 108 -85 108 -7
0 -31 -20 -53 -44z"/>
<path d="M2753 7967 c-48 -18 -55 -29 -37 -55 36 -52 113 -68 178 -37 35 17
35 17 21 46 -28 53 -93 71 -162 46z"/>
<path d="M2988 7908 c-36 -13 -35 -29 3 -67 36 -36 65 -45 120 -38 59 8 72 22
54 58 -28 52 -106 73 -177 47z"/>
<path d="M11441 7855 c-55 -63 -75 -113 -75 -190 0 -58 5 -79 28 -122 16 -28
44 -66 63 -85 l35 -33 24 30 c43 52 87 153 92 209 6 69 -26 144 -81 191 -22
19 -44 35 -48 35 -4 0 -21 -16 -38 -35z"/>
<path d="M6672 7803 c23 -86 71 -133 133 -133 49 0 58 11 46 56 -21 77 -69
114 -150 114 l-39 0 10 -37z"/>
<path d="M6575 7824 c-6 -1 -27 -5 -48 -9 -74 -12 -146 -105 -147 -187 0 -35
2 -38 28 -38 47 0 129 29 162 56 42 36 60 74 60 127 0 39 -3 45 -23 49 -12 2
-27 3 -32 2z"/>
<path d="M4900 7780 c-104 -104 -111 -212 -23 -347 14 -21 17 -21 42 -8 44 22
99 90 107 130 11 60 -1 131 -35 200 -18 36 -36 65 -42 65 -5 0 -27 -18 -49
-40z"/>
<path d="M1979 7596 c-88 -69 -149 -180 -149 -270 0 -64 36 -163 82 -229 l20
-27 50 27 c66 36 124 104 143 166 18 60 19 98 4 169 -11 54 -77 208 -88 208
-3 0 -31 -20 -62 -44z"/>
<path d="M8724 7571 c-89 -41 -144 -132 -144 -238 0 -41 2 -44 23 -37 41 13
96 44 132 76 53 46 77 98 73 161 -4 61 -19 68 -84 38z"/>
<path d="M11740 7531 c-67 -22 -180 -107 -180 -136 0 -21 123 -131 180 -161
49 -26 65 -29 150 -29 90 0 99 2 170 38 41 21 88 49 105 64 l29 26 -71 67
c-97 91 -183 133 -283 137 -41 1 -86 -1 -100 -6z"/>
<path d="M2556 7463 c-3 -4 -6 -27 -6 -53 0 -57 27 -101 88 -144 36 -26 45
-28 52 -16 27 42 -7 142 -61 182 -39 29 -64 39 -73 31z"/>
<path d="M11433 7328 c-66 -69 -86 -118 -81 -202 4 -76 28 -136 75 -191 l26
-29 39 44 c62 71 101 161 101 228 0 34 -7 70 -17 89 -21 42 -75 103 -90 103
-6 0 -30 -19 -53 -42z"/>
<path d="M1575 7151 c-28 -10 -61 -23 -73 -30 -21 -11 -21 -14 -8 -40 20 -38
88 -97 133 -117 54 -22 147 -15 208 17 27 13 50 29 52 35 2 6 -11 33 -29 60
-60 89 -166 117 -283 75z"/>
<path d="M2002 7031 c-29 -10 -55 -21 -58 -24 -8 -8 22 -62 58 -102 70 -80
188 -103 290 -57 52 23 53 26 14 100 -48 92 -174 127 -304 83z"/>
<path d="M1416 6915 c-3 -9 -6 -42 -6 -72 0 -52 3 -58 43 -98 51 -50 134 -86
148 -64 24 38 3 136 -40 182 -47 52 -133 82 -145 52z"/>
<path d="M10150 6586 c-104 -83 -137 -190 -87 -286 12 -24 27 -45 33 -47 22
-7 109 63 138 110 25 40 30 59 30 110 -1 60 -32 157 -51 157 -4 0 -33 -20 -63
-44z"/>
<path d="M1294 6495 c-27 -66 -7 -152 47 -202 27 -24 111 -68 150 -78 25 -6
26 -4 32 40 18 125 -46 224 -168 260 l-46 14 -15 -34z"/>
<path d="M10622 6318 c-97 -36 -144 -107 -128 -193 6 -28 12 -35 29 -35 30 1
98 33 119 56 26 30 48 89 48 131 0 59 -8 64 -68 41z"/>
<path d="M11157 6256 c-45 -16 -80 -47 -109 -94 -25 -40 -18 -51 55 -83 108
-48 210 -22 291 73 l36 41 -28 17 c-83 50 -184 69 -245 46z"/>
<path d="M2380 6209 c-53 -16 -56 -24 -26 -69 40 -61 99 -84 190 -77 72 5 106
14 106 26 0 17 -66 84 -102 102 -48 24 -120 32 -168 18z"/>
<path d="M1092 5978 c8 -160 96 -285 256 -367 58 -29 203 -69 290 -79 72 -8
72 -8 72 16 0 13 -7 52 -16 86 -40 157 -149 298 -278 361 -81 40 -183 65 -270
65 l-59 0 5 -82z"/>
<path d="M11496 5871 c-32 -33 -40 -48 -44 -91 -5 -54 20 -130 43 -130 16 0
70 59 89 97 9 18 16 45 16 60 0 34 -32 97 -51 101 -8 1 -32 -15 -53 -37z"/>
<path d="M740 5684 c-8 -1 -36 -6 -62 -9 -46 -6 -48 -7 -48 -39 0 -18 7 -56
16 -85 39 -131 187 -206 369 -186 59 6 65 9 65 30 0 77 -92 215 -169 255 -28
14 -152 45 -155 39 -1 -1 -8 -3 -16 -5z"/>
<path d="M11596 5655 c-59 -21 -72 -37 -57 -73 16 -39 79 -102 118 -118 54
-23 166 -15 212 15 32 20 -98 161 -166 180 -48 14 -59 13 -107 -4z"/>
<path d="M11127 5631 c-72 -63 -86 -157 -36 -238 l23 -36 48 52 c77 84 87 171
24 230 l-24 22 -35 -30z"/>
<path d="M2769 5593 c-5 -149 43 -246 156 -318 56 -36 167 -79 233 -90 l44 -7
-7 48 c-29 211 -135 334 -327 379 -89 21 -98 20 -99 -12z"/>
<path d="M11422 5584 c-18 -14 -39 -39 -47 -54 -28 -53 -12 -170 23 -170 9 0
37 22 62 49 57 58 68 100 44 160 -19 48 -36 51 -82 15z"/>
<path d="M10757 5548 c-61 -58 -83 -113 -74 -181 7 -48 48 -132 65 -132 21 0
100 85 122 130 11 23 20 59 20 80 0 43 -30 113 -60 140 -18 16 -21 15 -73 -37z"/>
<path d="M482 5328 c-40 -76 -33 -143 20 -204 30 -34 117 -100 122 -92 14 19
29 79 30 121 1 71 -28 123 -88 165 -57 38 -69 39 -84 10z"/>
<path d="M9914 5178 c-107 -118 -133 -277 -65 -411 17 -34 40 -73 51 -86 20
-23 21 -23 41 -5 11 10 39 56 62 103 35 71 42 96 46 158 5 101 -12 154 -68
215 l-46 50 -21 -24z"/>
<path d="M209 4917 c-30 -114 13 -200 131 -260 41 -20 86 -38 100 -40 24 -2
25 0 28 75 2 62 -1 85 -19 122 -33 71 -107 123 -196 139 -31 6 -33 5 -44 -36z"/>
<path d="M10327 4898 c-76 -100 -75 -226 2 -325 l20 -25 31 49 c31 49 60 130
60 167 0 44 -23 99 -54 133 l-33 36 -26 -35z"/>
<path d="M11979 4867 c-18 -12 -40 -35 -49 -50 -14 -26 -14 -29 10 -47 39 -29
104 -42 150 -30 39 10 120 76 120 97 0 18 -97 53 -148 53 -34 0 -59 -7 -83
-23z"/>
<path d="M1842 4723 c-22 -4 -23 -8 -17 -41 22 -116 103 -182 224 -182 69 0
75 9 56 83 -15 58 -54 102 -109 121 -46 16 -119 25 -154 19z"/>
<path d="M12307 4669 c-81 -67 -103 -174 -57 -271 12 -27 27 -48 33 -48 23 0
115 107 132 154 16 42 17 54 6 94 -13 50 -46 102 -64 102 -7 0 -29 -14 -50
-31z"/>
<path d="M497 4572 c-4 -5 -9 -27 -13 -48 -16 -104 59 -206 181 -243 107 -33
110 -32 106 54 -5 101 -73 198 -156 222 -67 19 -112 25 -118 15z"/>
<path d="M244 4559 c-120 -35 -212 -170 -238 -351 l-7 -48 58 0 c196 0 327
104 363 286 16 80 11 106 -20 115 -35 10 -119 9 -156 -2z"/>
<path d="M12434 4366 c-48 -15 -104 -47 -104 -58 0 -5 11 -30 24 -56 30 -60
110 -135 162 -153 57 -20 159 -15 227 11 l57 22 -22 41 c-34 61 -123 153 -171
176 -57 27 -123 33 -173 17z"/>
<path d="M11089 4303 c-8 -27 -14 -86 -14 -133 0 -76 3 -91 30 -139 16 -29 48
-69 70 -88 36 -32 151 -93 174 -93 15 0 31 94 31 185 0 104 -24 176 -77 227
-41 39 -105 72 -164 82 -36 6 -36 6 -50 -41z"/>
<path d="M12230 4293 c-41 -27 -91 -76 -106 -105 -19 -36 -18 -138 2 -188 9
-22 18 -40 21 -40 8 0 66 42 96 69 71 64 90 162 47 239 -13 23 -26 42 -30 42
-3 0 -17 -7 -30 -17z"/>
<path d="M1653 4199 c-18 -5 -34 -13 -37 -18 -3 -5 7 -26 23 -48 49 -67 128
-87 207 -51 28 13 29 19 9 59 -32 61 -113 84 -202 58z"/>
<path d="M8759 4122 c-23 -26 -53 -71 -67 -101 -21 -46 -24 -64 -20 -130 5
-80 29 -140 84 -206 l25 -30 40 45 c86 97 129 235 100 323 -13 39 -65 109 -98
132 -20 14 -24 12 -64 -33z"/>
<path d="M11755 4099 c-8 -38 2 -110 22 -161 30 -76 143 -148 231 -148 l35 0
-6 76 c-14 163 -101 263 -229 264 -44 0 -47 -2 -53 -31z"/>
<path d="M9371 4021 c-75 -141 -74 -270 3 -385 36 -54 151 -156 176 -156 11 0
66 133 79 191 15 65 13 159 -5 211 -26 78 -104 152 -195 187 -26 9 -28 7 -58
-48z"/>
<path d="M10648 4033 c-25 -29 -48 -80 -48 -108 0 -36 23 -86 53 -113 l25 -24
27 46 c36 61 41 112 17 155 -10 19 -28 41 -39 48 -17 11 -22 11 -35 -4z"/>
<path d="M1331 3936 c-45 -16 -100 -71 -134 -134 l-27 -50 31 -11 c41 -14 129
-14 166 0 55 20 132 117 133 166 0 12 -89 44 -119 42 -9 0 -31 -6 -50 -13z"/>
<path d="M10825 3850 c-40 -9 -65 -23 -93 -52 l-22 -25 21 -26 c36 -46 104
-80 162 -80 52 0 146 37 163 65 5 7 -8 25 -32 46 -70 61 -139 86 -199 72z"/>
<path d="M2797 3824 c-4 -4 -7 -37 -7 -73 0 -81 23 -134 80 -190 39 -38 151
-100 209 -117 l24 -6 -5 79 c-7 93 -34 159 -91 216 -55 55 -188 113 -210 91z"/>
<path d="M10632 3726 c-40 -46 -49 -94 -28 -151 24 -60 41 -73 67 -49 31 28
59 88 59 127 0 33 -34 97 -56 104 -6 2 -25 -12 -42 -31z"/>
<path d="M9907 3727 c-47 -72 -59 -175 -28 -244 20 -42 83 -113 121 -133 19
-10 23 -6 47 47 38 84 42 183 11 243 -20 40 -102 110 -128 110 -4 0 -14 -10
-23 -23z"/>
<path d="M1940 3598 c0 -92 59 -156 166 -178 78 -16 90 -12 86 30 -10 114 -78
182 -196 196 l-56 7 0 -55z"/>
<path d="M1650 3455 c0 -75 53 -121 163 -141 37 -6 37 -6 37 27 0 18 -9 52
-21 75 -23 49 -82 84 -142 84 l-37 0 0 -45z"/>
<path d="M1234 3466 c-4 -9 1 -37 11 -62 12 -33 26 -49 53 -63 44 -22 118 -36
125 -24 12 20 -16 92 -48 123 -27 26 -45 34 -84 38 -41 4 -52 1 -57 -12z"/>
<path d="M2634 3384 c-10 -40 3 -95 33 -138 28 -40 104 -89 157 -102 l29 -7
-6 55 c-10 102 -62 170 -156 203 -54 19 -49 20 -57 -11z"/>
<path d="M11332 3338 c3 -53 9 -73 32 -103 33 -42 95 -74 145 -75 l34 0 -7 57
c-8 65 -39 127 -78 156 -15 11 -49 22 -79 25 l-52 5 5 -65z"/>
<path d="M3715 3314 c-28 -43 -45 -104 -45 -163 0 -109 71 -209 208 -291 l67
-40 13 26 c23 44 42 156 35 209 -13 108 -82 199 -192 254 -33 17 -62 31 -65
31 -2 0 -11 -12 -21 -26z"/>
<path d="M1463 3304 c-35 -15 8 -107 61 -133 16 -7 52 -14 80 -15 49 -1 51 0
48 24 -5 35 -32 79 -63 103 -26 19 -102 32 -126 21z"/>
<path d="M1370 3274 c-102 -34 -138 -81 -146 -191 -7 -89 1 -101 55 -83 110
36 178 158 141 254 -9 25 -20 29 -50 20z"/>
<path d="M4113 3264 c-4 -11 -8 -46 -8 -79 0 -78 35 -140 102 -183 47 -29 124
-58 173 -64 24 -3 25 0 28 50 9 152 -88 267 -243 288 -38 6 -46 4 -52 -12z"/>
<path d="M3530 2820 c-24 -46 -27 -128 -6 -169 28 -54 152 -151 175 -137 5 3
14 26 20 50 31 124 -10 215 -121 272 l-48 24 -20 -40z"/>
<path d="M3336 2619 c-58 -46 -71 -120 -35 -198 32 -71 38 -75 66 -49 34 32
63 91 63 129 0 34 -32 110 -54 128 -10 8 -20 6 -40 -10z"/>
<path d="M2887 2594 c-16 -16 -7 -92 14 -118 22 -28 87 -66 114 -66 21 0 20
65 -3 109 -25 51 -103 97 -125 75z"/>
<path d="M2374 2548 c-43 -52 -64 -107 -64 -174 0 -81 35 -150 118 -234 74
-73 71 -74 121 30 22 46 26 69 26 140 0 64 -5 94 -19 120 -20 36 -130 150
-145 150 -5 0 -22 -15 -37 -32z"/>
<path d="M1445 2476 c-33 -14 -77 -61 -101 -107 -13 -27 -13 -30 3 -37 10 -4
43 -7 73 -7 67 1 110 27 140 85 11 22 20 42 20 45 0 9 -66 35 -87 35 -10 -1
-32 -7 -48 -14z"/>
<path d="M3035 2360 c-14 -64 53 -137 132 -143 26 -2 28 0 26 35 -4 58 -29 97
-76 119 -59 26 -74 24 -82 -11z"/>
<path d="M2860 2358 c-40 -27 -79 -99 -87 -158 l-6 -43 62 6 c69 6 98 21 136
71 24 31 49 128 37 141 -3 3 -29 5 -57 5 -37 0 -61 -6 -85 -22z"/>
<path d="M1998 2297 c-55 -53 -74 -112 -58 -184 12 -52 53 -134 80 -158 16
-15 21 -12 59 31 55 63 78 137 61 202 -13 53 -38 97 -73 130 l-24 23 -45 -44z"/>
<path d="M1302 2105 c3 -33 13 -67 24 -83 27 -37 98 -70 167 -78 l57 -7 0 34
c-1 69 -60 154 -123 178 -16 6 -51 11 -79 11 l-50 0 4 -55z"/>
<path d="M1585 1921 c-9 -15 12 -92 32 -120 33 -44 98 -71 175 -71 l68 0 -6
28 c-29 119 -92 172 -203 172 -33 0 -62 -4 -66 -9z"/>
<path d="M1439 1876 c-60 -21 -96 -54 -124 -109 -40 -84 -47 -257 -10 -257 32
0 124 42 162 75 58 49 84 111 84 197 0 95 -5 108 -44 108 -18 -1 -48 -7 -68
-14z"/>
</g>
</svg>
